<svg xmlns="http://www.w3.org/2000/svg" width="114.467" height="80.796" viewBox="0 0 114.467 80.796"><g transform="translate(190.746 -34.374)"><path d="M-187.534,84.929a96.136,96.136,0,0,1,18.842-38.4s.273-.34.275-.335h0c.28-.4,1.127-.085.447.849-.17.238-.269.41-.424.647a31.69,31.69,0,0,0-5.287,15.161c-1.349,15.174,4.963,27.082,15.9,36.928,7.68,6.912,16.816,11.2,26.6,14.211a5.5,5.5,0,0,1,1.087.329l.057.032a.674.674,0,0,1,.221.926.673.673,0,0,1-.61.319h0c-9.62-.574-18.842-2.988-27.947-6-4.782-1.58-9.6-3.076-14.446-4.432a14.748,14.748,0,0,0-8.318-.19c-3.779,1.14-5.726,4.074-7.1,7.5-.53,1.319-.856,2.716-1.279,4.082v.011a.526.526,0,0,1-.661.342.526.526,0,0,1-.365-.463A99.19,99.19,0,0,1-187.534,84.929Z" transform="translate(0 -1.762)" fill="#29aae1"/><path d="M-126.106,111.542c-2.091-.651-3.542-1.093-5.543-1.842-11.265-4.215-21.232-10.292-28.354-20.285a42.9,42.9,0,0,1-8.246-23.329,4.83,4.83,0,0,1,.255-1.946A96.809,96.809,0,0,1-150.036,34.69c.037-.042.077-.085.117-.123a.631.631,0,0,1,.892-.016.631.631,0,0,1,.047.857l-.014.019a35.355,35.355,0,0,0-5.994,14.95c-2.68,15.525.233,29.887,9.518,42.747a57.283,57.283,0,0,0,19.606,16.735c.334.182,1.018.606,1.041.628a.665.665,0,0,1,.138.93.666.666,0,0,1-.478.266A2.238,2.238,0,0,1-126.106,111.542Z" transform="translate(-3.401)" fill="#545454"/><path d="M-143.3,108.391s-8.678-3.717-16.729-14.893a42.9,42.9,0,0,1-8.246-23.329,4.83,4.83,0,0,1,.255-1.946c.7-1.752,2.7-6.068,2.7-6.068s-2.107,13.665,6.794,29.137S-143.3,108.391-143.3,108.391Z" transform="translate(-3.396 -4.202)"/><g transform="translate(-142.395 61.559)"><path d="M-133.778,86.523l.131-.1a14.383,14.383,0,0,0,1.6-.163c.424-.065.945-.783,1.369-1.859a43.285,43.285,0,0,0,1.663-5.51l2.054-9a5.808,5.808,0,0,0,.228-1.4c0-.457-.032-.685-.75-.815a10.812,10.812,0,0,0-1.6-.131l-.1-.1.163-.685h3.977c1.434,0,2.836-.065,3.488-.1.163,1.239.261,2.511.554,4.239.685,4.108,1.273,7.336,1.826,10.27,2.546-3.814,7.01-10.6,9.39-14.41H-103v.685l-.1.1a13.37,13.37,0,0,0-1.4.1c-.849.131-1.043.62-1.239,1.4-1.239,4.76-3.749,15.845-3.749,16.692,0,.359.163.522.88.586.684.065,1.141.1,1.273.1l.1.131-.163.652h-9.421v-.684l.1-.1a13.448,13.448,0,0,0,1.467-.1c.75-.1.978-.554,1.239-1.5,1.01-3.717,2.348-10.009,3.423-14.737-2.152,3.423-7.695,11.672-11.085,17.083h-.749c-1.174-6.032-2.185-11.084-3.293-17.8-.586,2.869-1.4,6.162-2.086,9.519a49.848,49.848,0,0,0-.815,5.543c0,1.108.131,1.728.652,1.793.359.065,1.369.163,1.859.2l.065.1-.2.684h-7.531Z" transform="translate(133.778 -66.444)" fill="#fff"/><path d="M-99.372,86.939l-.064-.131,1.467-6.488.652-.065.1.1v1.532c0,2.575.391,4.76,4.173,4.76,2.739,0,4.434-1.434,4.434-3.325,0-1.3-1.043-2.282-2.706-3.521-4.5-3.423-5.412-4.956-5.412-7.3,0-3.13,2.511-6.1,7.3-6.1,4.074,0,5.737,1.434,5.737,3.26,0,1.4-.912,2.348-2.314,3.065l-.685-.424a13.043,13.043,0,0,0,.1-1.467c0-1.6-.065-3.586-2.934-3.586-2.348,0-3.945,1.273-3.945,3.065s1.63,2.771,3.65,4.4c3.293,2.674,4.76,4.173,4.76,6.651,0,3.162-2.869,6.13-8.085,6.13C-95.329,87.493-98.3,86.939-99.372,86.939Z" transform="translate(128.583 -66.404)" fill="#fff"/><path d="M-79.178,86.54l.1-.1c.261,0,1.565-.065,1.989-.131.75-.1.978-.457,1.206-1.337.685-2.412,1.3-5.314,1.891-7.922.456-2.022,1.728-7.5,2.054-9.455h-.685c-3.391,0-5.053,1.174-6.325,3.65-.228.457-.457,1.011-.685,1.565l-.163.131-.586-.065,1.369-6.1h19.431l-1.369,6.162-.652.032-.1-.1c.033-.554.033-.783.033-1.369,0-2.9-1.141-3.913-5.379-3.913h-.294c-.945,4.271-1.5,6.455-2.217,9.683-.816,3.554-1.761,7.893-1.761,8.444,0,.326.163.522.783.587.749.065,1.337.1,2.152.131l.1.131-.163.652H-79.178Z" transform="translate(125.701 -66.461)" fill="#fff"/></g></g></svg>